# xmcd
#
# Track frame offsets:
#	182
#	10630
#	25367
#	40117
#	52230
#	63720
#	75200
#	92980
#	107445
#	123055
#	137992
#	154710
#	171680
#	185620
#	196347
#	211110
#
# Disc length: 3037 seconds
#
# Revision: 3
# Processed by: cddbd v1.5.2PL0 Copyright (c) Steve Scherf et al.
# Submitted via: audiograbber 1.83.01
#
DISCID=d70bdb10
DTITLE=Prysock, Arthur - Compact Jazz - Arthur Prysock
DYEAR=1989
DGENRE=Jazz
TTITLE0=I Worry About You
TTITLE1=Good Morning Blues
TTITLE2=It's Too Late Baby (Baby Too Late)
TTITLE3=I Wonder Where Our Love Has Gone
TTITLE4=Close Your Eyes
TTITLE5=Stella By Starlight
TTITLE6=My Funny Valentine
TTITLE7=Because
TTITLE8=Fly Me To The Moon
TTITLE9=When I Fall In Love
TTITLE10=You've Changed
TTITLE11=Ghost Of A Chance
TTITLE12=I Left My Heart In San Francisco
TTITLE13=Let's Start All Over Again
TTITLE14=I've Got The Blues So Bad
TTITLE15=My Mother's Eyes
EXTD=
EXTT0=
EXTT1=
EXTT2=
EXTT3=
EXTT4=
EXTT5=
EXTT6=
EXTT7=
EXTT8=
EXTT9=
EXTT10=
EXTT11=
EXTT12=
EXTT13=
EXTT14=
EXTT15=
PLAYORDER=
